<?xml version="1.0" standalone="no"?>
<!DOCTYPE svg PUBLIC "-//W3C//DTD SVG 20010904//EN"
 "http://www.w3.org/TR/2001/REC-SVG-20010904/DTD/svg10.dtd">
<svg version="1.0" xmlns="http://www.w3.org/2000/svg"
 width="1280.000000pt" height="1208.000000pt" viewBox="0 0 1280.000000 1208.000000"
 preserveAspectRatio="xMidYMid meet">
<g transform="translate(0.000000,1208.000000) scale(0.100000,-0.100000)"
fill="#000000" stroke="none">
<path d="M10088 12055 c-26 -14 -61 -43 -79 -65 -18 -22 -35 -40 -39 -40 -4 0
-14 18 -23 40 -17 45 -55 67 -87 50 -14 -8 -20 -23 -22 -62 -2 -33 -8 -53 -18
-58 -8 -4 -30 -14 -48 -23 -58 -29 -66 -24 -58 34 13 93 -35 105 -132 33 -50
-37 -73 -47 -122 -54 -106 -15 -200 -90 -236 -189 -31 -84 -72 -114 -136 -99
-35 8 -44 5 -101 -33 -89 -60 -126 -98 -138 -143 -8 -29 -31 -58 -91 -115 -45
-42 -116 -119 -159 -172 -78 -97 -159 -176 -210 -206 -16 -9 -35 -34 -43 -54
-9 -21 -65 -90 -127 -156 -128 -134 -155 -181 -145 -252 l6 -47 -55 -27 c-90
-44 -116 -114 -78 -208 19 -48 22 -42 -81 -117 -41 -29 -46 -37 -46 -70 0 -36
-2 -39 -87 -88 -114 -67 -222 -152 -257 -202 -27 -40 -47 -122 -30 -122 5 0
43 25 84 56 118 88 170 110 198 82 25 -25 12 -56 -48 -111 -80 -75 -138 -94
-230 -78 -61 11 -73 10 -131 -9 -141 -47 -335 -150 -617 -328 -142 -90 -152
-99 -147 -122 25 -96 14 -140 -49 -203 -21 -22 -35 -47 -40 -73 -3 -21 -14
-78 -23 -125 -21 -111 -18 -119 49 -119 54 0 98 -19 98 -43 0 -7 -44 -54 -97
-105 l-98 -93 24 -19 c27 -23 60 -25 108 -8 77 28 68 -42 -16 -122 -64 -60
-76 -90 -61 -156 11 -50 45 -78 117 -99 32 -9 74 -26 95 -37 28 -16 46 -19 80
-14 104 16 262 106 473 270 100 78 113 93 150 163 22 42 45 76 50 76 25 -1 46
-77 55 -201 15 -188 54 -311 129 -406 20 -25 29 -45 25 -55 -4 -9 -9 -30 -12
-48 -4 -28 0 -34 37 -57 26 -17 41 -34 41 -47 0 -32 18 -59 81 -124 l58 -60
11 -145 c15 -200 17 -210 46 -210 35 0 127 21 142 32 6 6 12 27 12 47 0 49 27
161 46 189 14 21 19 22 79 16 60 -6 70 -4 129 25 120 59 259 250 273 375 3 25
-2 106 -12 178 -27 205 -17 224 165 323 118 64 170 100 170 119 0 6 21 54 46
104 25 51 44 100 42 109 -2 9 -22 22 -50 30 -27 7 -48 19 -48 25 0 7 14 27 32
45 26 26 29 35 19 47 -13 15 -74 30 -171 41 -79 9 -89 13 -105 45 -19 37 -19
83 0 190 8 47 15 105 15 129 0 39 11 59 112 205 308 445 507 696 550 696 24 0
23 24 -7 117 -14 43 -25 86 -25 95 0 24 32 42 128 69 45 12 82 25 82 28 0 3
-9 20 -20 36 -38 57 -32 70 76 144 l60 41 100 -45 c149 -68 184 -88 205 -114
29 -36 24 -58 -12 -66 -76 -17 -158 -143 -202 -311 -23 -85 -30 -96 -71 -108
-13 -4 -16 -11 -11 -24 18 -43 17 -51 -12 -65 -16 -9 -60 -51 -100 -94 -39
-43 -87 -87 -107 -98 -27 -14 -36 -26 -36 -45 0 -14 -11 -49 -25 -78 -25 -54
-25 -54 -10 -150 8 -54 24 -161 35 -239 22 -154 47 -242 76 -275 11 -11 82
-52 159 -90 134 -66 143 -69 200 -66 85 5 180 53 350 177 216 158 315 211 394
211 34 0 114 62 226 174 159 160 285 372 285 478 0 104 -108 216 -234 243 -26
6 -28 8 -20 38 4 18 8 55 9 84 0 37 7 61 23 82 12 17 22 32 22 34 0 3 -38 8
-85 12 -93 7 -98 11 -110 77 -6 30 -13 38 -46 51 -27 11 -44 26 -56 52 -19 40
-23 22 64 271 2 6 -47 66 -109 134 -62 67 -118 132 -125 144 -17 29 -16 59 4
145 l17 74 -64 61 c-46 43 -79 65 -114 76 l-50 16 -33 129 c-18 72 -32 139
-30 149 1 15 15 23 51 32 38 10 63 26 108 71 32 31 58 63 58 69 0 16 -24 24
-76 24 -79 0 -112 36 -56 62 21 10 28 22 32 52 5 38 7 40 53 52 63 16 67 21
37 45 -34 28 -164 89 -187 89 -10 -1 -39 -12 -65 -25z"/>
<path d="M3067 11283 c-4 -3 -7 -14 -7 -23 0 -23 -26 -45 -35 -31 -21 34 -43
31 -143 -20 -95 -48 -142 -80 -142 -98 0 -25 44 -59 99 -76 84 -25 90 -36 44
-74 -36 -30 -40 -31 -103 -24 -76 9 -107 9 -144 -1 -30 -7 -48 -42 -39 -75 5
-18 13 -21 58 -21 73 0 119 -31 123 -83 3 -33 -2 -43 -37 -79 -41 -40 -42 -40
-96 -33 -54 6 -54 6 -60 -22 -16 -76 -19 -70 37 -77 81 -11 139 -49 238 -157
94 -101 150 -139 208 -139 17 0 92 14 165 30 141 31 208 37 252 20 20 -8 35
-6 66 10 21 11 110 41 197 65 268 76 342 129 350 249 3 52 0 71 -22 114 -31
62 -33 93 -6 117 25 22 25 46 2 75 -16 19 -22 21 -40 11 -29 -15 -38 -9 -46
33 -10 55 -81 98 -103 64 -4 -7 -13 -28 -18 -47 -13 -45 -26 -48 -47 -11 -20
34 -33 37 -82 13 -35 -16 -36 -16 -60 10 -32 34 -60 40 -159 35 -69 -4 -83 -8
-95 -26 -23 -34 -32 -26 -26 22 8 53 -1 60 -61 50 -42 -6 -48 -10 -70 -55 -27
-52 -49 -69 -89 -69 -33 0 -33 17 -1 80 40 80 29 178 -26 224 -29 25 -68 34
-82 19z"/>
<path d="M10405 8659 c-98 -13 -269 -56 -335 -85 -30 -14 -85 -46 -122 -71
-84 -57 -88 -77 -26 -134 41 -38 42 -39 43 -106 0 -66 1 -68 27 -71 14 -2 46
7 69 19 l43 21 19 -23 c12 -16 17 -31 12 -49 -23 -97 -24 -115 -10 -211 19
-124 8 -162 -49 -178 -69 -19 -143 22 -206 114 l-29 42 -98 6 -98 6 -27 -32
c-51 -60 -178 -328 -178 -375 0 -11 11 -44 25 -74 15 -32 31 -98 40 -159 13
-90 19 -107 42 -128 26 -22 32 -23 114 -17 83 6 88 5 103 -16 23 -33 19 -95
-10 -158 -21 -47 -24 -63 -19 -111 7 -63 -2 -77 -57 -85 -29 -5 -35 -2 -50 26
l-18 32 -92 -7 c-119 -8 -278 -31 -345 -51 -65 -18 -90 -9 -182 64 -35 29 -73
52 -84 52 -74 0 -213 -60 -512 -220 -82 -44 -167 -85 -187 -92 -21 -6 -62 -33
-93 -60 -30 -27 -59 -47 -64 -44 -4 3 -11 18 -14 34 -5 22 -19 36 -66 61 -33
17 -63 35 -65 40 -3 4 6 19 19 31 30 29 31 51 4 107 -40 83 -93 108 -141 65
-26 -22 -22 -47 9 -70 l28 -20 -23 -25 c-49 -52 -198 -108 -249 -93 -10 2 -28
7 -40 11 -18 5 -26 -2 -48 -40 -22 -36 -32 -45 -53 -44 -59 2 -77 13 -82 49
l-5 35 -112 30 c-62 17 -115 33 -118 37 -4 3 1 20 10 38 9 17 15 46 13 63 -3
28 -10 36 -65 63 -35 17 -66 34 -70 37 -4 4 11 26 33 50 79 82 185 247 200
310 5 23 22 36 85 68 44 21 79 44 79 49 0 15 -30 27 -97 40 -35 7 -68 18 -73
26 -9 9 -2 37 24 108 40 105 47 176 19 176 -25 0 -79 -40 -98 -72 -15 -26 -21
-28 -78 -28 -34 0 -86 -3 -115 -6 -51 -7 -54 -9 -103 -76 -30 -40 -48 -73 -43
-78 5 -5 28 0 54 12 25 12 63 23 85 26 46 5 115 -19 115 -40 0 -21 -87 -59
-145 -65 -28 -2 -74 2 -105 11 -30 8 -57 12 -60 10 -2 -3 -5 -94 -5 -203 0
-180 2 -199 20 -226 16 -24 21 -52 25 -141 5 -104 7 -115 44 -187 43 -85 42
-114 -7 -151 -23 -17 -31 -18 -48 -8 -22 14 -23 13 -34 -53 -11 -63 -21 -75
-64 -75 -33 0 -45 7 -92 55 l-54 55 -64 -52 -64 -53 -101 -1 c-103 -2 -196
-24 -252 -61 -27 -17 -31 -52 -13 -113 23 -78 -13 -130 -89 -130 -59 0 -72 12
-73 69 -2 107 -10 106 -78 -16 -77 -138 -132 -200 -236 -268 -44 -28 -94 -67
-111 -87 -17 -19 -43 -38 -57 -42 -14 -3 -82 -30 -151 -59 -74 -32 -130 -51
-138 -46 -7 4 -55 4 -106 0 -122 -10 -136 -21 -187 -145 -22 -53 -53 -112 -68
-131 -49 -61 -165 -106 -217 -85 -38 16 -58 3 -115 -70 -51 -66 -66 -71 -135
-44 -52 21 -81 62 -83 119 -2 49 -8 52 -64 36 -25 -7 -40 -5 -67 10 -49 26
-61 24 -92 -16 -33 -44 -36 -117 -6 -168 18 -31 19 -40 8 -87 -7 -29 -22 -63
-34 -77 -21 -24 -25 -25 -110 -18 -135 10 -139 11 -168 61 l-26 44 -231 -5
-232 -5 -30 -31 -30 -30 21 -17 c12 -9 30 -22 40 -28 27 -16 8 -35 -55 -58
-28 -10 -51 -20 -51 -23 0 -16 35 -65 65 -92 34 -29 39 -31 90 -25 47 6 62 3
110 -20 67 -34 116 -88 175 -197 34 -63 53 -88 78 -101 48 -23 48 -23 18 -69
l-28 -41 30 -67 c34 -75 38 -90 52 -221 6 -52 17 -118 26 -146 l15 -52 -40
-63 c-22 -35 -79 -152 -126 -259 -75 -169 -93 -202 -138 -249 -51 -52 -231
-202 -265 -220 -12 -6 -45 0 -107 19 -50 15 -185 49 -300 75 -193 43 -222 53
-356 116 -147 69 -230 95 -276 86 -14 -3 -46 4 -70 15 -25 11 -83 26 -128 33
-90 15 -124 29 -196 81 -34 25 -57 34 -85 34 -46 0 -50 -3 -93 -57 -32 -42
-34 -43 -91 -43 -133 0 -202 -37 -230 -123 -11 -34 -9 -41 14 -81 14 -25 26
-53 26 -63 0 -10 -20 -41 -44 -68 -23 -28 -50 -64 -59 -81 -15 -29 -60 -67
-177 -149 -30 -21 -67 -49 -82 -63 l-27 -24 20 -42 c28 -57 16 -81 -70 -150
-76 -61 -101 -97 -101 -145 0 -26 -37 -67 -265 -298 l-265 -268 6 -40 c10 -64
42 -140 80 -189 l35 -47 -18 -37 c-10 -20 -42 -54 -70 -76 -57 -42 -63 -60
-36 -106 26 -45 -3 -107 -94 -198 -41 -41 -73 -76 -71 -77 2 -2 113 -22 248
-45 l244 -42 53 -48 c30 -27 89 -74 132 -104 160 -113 218 -184 242 -295 13
-60 25 -69 106 -77 44 -4 104 4 243 31 235 45 372 53 535 30 88 -12 125 -21
141 -36 27 -25 43 -24 82 5 23 17 51 25 101 29 52 4 112 22 242 72 96 37 211
75 257 85 103 23 114 31 106 81 l-6 38 71 46 c40 26 127 76 195 111 135 70
144 80 153 170 4 36 -1 73 -17 127 -58 196 -4 289 305 525 76 59 166 132 200
163 77 72 105 86 200 98 67 8 101 21 249 93 l171 83 105 0 105 0 15 45 c21 63
27 70 60 70 16 0 36 7 44 16 24 23 20 72 -7 94 -20 17 -22 27 -22 117 0 81 4
107 23 148 27 59 71 107 129 141 l42 25 98 -42 c226 -96 201 -89 268 -73 33 7
65 14 72 14 6 0 38 -23 70 -51 78 -69 105 -79 214 -79 116 0 123 4 262 157
126 139 171 177 198 170 33 -9 80 10 207 83 206 118 196 114 240 91 20 -10 69
-29 107 -41 l70 -22 77 -116 c90 -136 105 -174 114 -285 4 -52 13 -93 25 -113
34 -57 133 -140 299 -251 135 -91 180 -128 248 -202 108 -118 152 -144 246
-146 45 -1 83 -8 104 -19 39 -20 82 -77 106 -140 22 -58 63 -81 190 -107 49
-10 93 -24 97 -31 5 -7 9 -29 9 -48 1 -19 9 -55 18 -79 16 -42 20 -45 74 -57
101 -23 170 -87 219 -201 19 -45 99 -299 99 -315 0 -4 -24 -22 -54 -38 -50
-29 -55 -35 -66 -83 -7 -29 -24 -81 -38 -116 -28 -71 -24 -81 35 -81 69 0 120
73 182 262 35 105 35 105 171 181 l32 17 -7 73 c-8 94 -13 107 -35 107 -10 0
-50 21 -90 48 -70 46 -72 48 -67 83 7 51 82 201 126 250 l36 41 63 -16 c34 -8
83 -26 109 -40 72 -36 169 -112 194 -152 25 -41 40 -40 53 4 31 108 -54 199
-281 301 -159 72 -451 217 -482 240 -21 16 -22 21 -11 42 7 13 27 41 43 62 45
56 33 61 -146 68 -135 5 -159 8 -216 32 -171 71 -273 207 -305 405 -21 131
-47 169 -205 291 -186 144 -216 200 -172 321 21 56 21 62 6 105 -8 25 -15 67
-15 94 0 61 8 68 179 166 l135 77 37 -21 c20 -12 44 -21 54 -21 9 0 25 -5 36
-10 18 -10 18 -13 -12 -72 l-31 -62 25 -52 c14 -28 29 -68 32 -88 4 -20 11
-36 15 -36 16 0 59 61 69 97 12 42 47 83 72 83 10 0 32 -20 50 -45 18 -24 40
-47 49 -50 9 -3 30 -19 46 -36 28 -29 29 -35 29 -121 l0 -90 57 -52 c33 -29
60 -63 64 -79 8 -33 49 -67 125 -100 48 -21 59 -31 69 -61 l12 -36 61 0 c102
-1 203 -52 326 -165 32 -30 67 -55 77 -55 52 -1 214 -88 312 -168 56 -45 60
-46 129 -26 16 4 23 1 28 -18 4 -12 17 -31 28 -40 19 -15 21 -25 18 -90 -2
-57 2 -85 19 -128 12 -30 33 -85 45 -122 l23 -66 -28 -54 c-58 -106 -37 -156
137 -324 116 -112 126 -125 134 -169 5 -27 16 -56 24 -65 27 -30 137 -79 205
-91 83 -16 92 -25 58 -52 -76 -62 -38 -152 78 -187 47 -14 194 -10 402 11 119
12 134 12 148 -3 15 -15 15 -19 -2 -55 -15 -29 -29 -41 -61 -53 -39 -13 -55
-12 -181 9 -176 30 -269 27 -308 -9 -35 -33 -54 -79 -54 -135 0 -37 5 -51 26
-70 23 -21 111 -55 143 -55 7 0 23 -11 36 -25 23 -22 25 -33 26 -112 1 -142 9
-174 48 -200 47 -31 96 -30 117 2 9 14 20 40 23 58 4 17 13 33 21 34 9 1 44
-36 80 -85 36 -48 70 -87 75 -87 11 0 21 31 30 88 9 59 28 57 100 -12 87 -84
99 -82 93 14 -6 92 -26 125 -122 196 -63 48 -68 53 -62 81 3 17 6 41 6 54 0
32 17 31 98 -10 99 -50 148 -61 178 -41 31 20 32 60 2 77 -13 7 -57 26 -98 43
l-75 30 -3 78 c-2 47 1 77 7 77 6 0 44 -11 85 -24 51 -17 97 -42 141 -75 67
-52 91 -59 126 -41 31 17 23 38 -41 104 -33 35 -60 70 -60 78 0 29 -84 94
-199 154 -63 32 -135 78 -161 101 -68 61 -157 240 -132 265 7 7 35 2 89 -16
99 -33 113 -33 113 -1 0 27 2 25 -167 136 -124 80 -138 102 -136 202 2 100 19
174 42 180 47 12 79 -24 165 -183 80 -148 116 -181 157 -144 30 27 24 71 -16
116 -32 35 -38 58 -15 58 4 0 38 -27 74 -60 37 -33 75 -60 87 -60 40 0 32 29
-30 102 -34 40 -61 77 -61 84 0 28 33 19 116 -31 50 -30 93 -50 98 -45 14 14
-2 57 -34 87 -17 15 -37 38 -45 50 -15 22 -15 22 9 12 38 -18 52 -6 76 66 30
92 58 120 137 145 36 11 77 20 92 20 15 0 65 10 111 21 65 17 102 20 158 16
45 -3 84 -1 98 5 47 22 49 -3 10 -90 -39 -87 -43 -102 -23 -102 21 0 193 117
216 146 12 15 21 41 21 59 0 29 6 37 56 67 104 62 142 77 289 118 187 51 204
61 205 103 0 13 -30 32 -112 72 -63 29 -126 67 -143 85 -16 17 -61 56 -100 86
-38 29 -92 79 -119 110 l-50 57 32 59 c30 53 33 67 36 161 2 71 12 136 31 212
l28 109 -17 146 c-9 80 -20 153 -22 163 -4 14 23 46 106 125 129 122 125 106
61 250 -23 51 -41 95 -41 98 0 4 28 3 63 0 l63 -7 16 95 c28 169 93 271 207
325 48 22 69 26 154 26 l97 0 0 30 c3 178 21 788 26 884 7 120 7 124 -12 115
-40 -19 -167 -7 -305 29 -188 50 -221 53 -293 28 -75 -27 -86 -26 -145 4 -27
13 -70 29 -96 36 l-48 12 6 57 c6 54 4 60 -23 91 -17 20 -39 63 -50 101 -15
49 -29 73 -51 90 -83 64 -78 55 -85 159 -5 68 -3 98 5 103 6 4 46 -14 87 -40
l77 -48 22 26 c12 14 32 31 44 37 41 23 19 102 -45 162 -22 20 -68 56 -104 81
-137 96 -151 127 -143 310 5 109 4 131 -11 153 -24 36 -103 84 -226 136 -121
51 -173 94 -346 291 -146 165 -138 147 -108 248 36 119 30 181 -19 226 -41 38
-110 61 -218 73 -80 9 -159 42 -159 66 0 8 4 15 8 15 18 0 132 113 132 131 0
10 -12 25 -27 33 -33 17 -83 63 -83 76 0 4 11 22 24 38 23 27 66 120 66 143 0
32 -149 53 -265 38z"/>
<path d="M4161 8360 c-66 -16 -111 -69 -127 -150 l-7 -33 63 6 c128 14 206 73
198 150 -3 30 -5 32 -48 34 -25 1 -60 -2 -79 -7z"/>
<path d="M4458 8263 c-41 -5 -133 -78 -261 -208 -40 -41 -78 -75 -83 -75 -6 0
-21 12 -35 26 -32 36 -84 57 -120 49 -16 -4 -31 -10 -34 -15 -9 -15 66 -140
101 -168 19 -15 34 -32 34 -38 0 -6 -39 -30 -87 -54 -127 -63 -203 -141 -203
-208 0 -17 10 -20 88 -25 101 -6 122 -12 122 -37 0 -10 -34 -70 -76 -134 -42
-64 -74 -119 -71 -122 3 -3 14 -1 24 4 10 5 42 15 71 22 46 11 56 10 69 -3 13
-13 13 -18 -1 -45 -9 -17 -34 -46 -56 -63 -22 -18 -40 -38 -40 -45 0 -7 14
-24 31 -38 36 -31 93 -34 179 -11 75 20 123 19 143 -3 26 -28 21 -62 -19 -127
l-35 -60 20 -63 c12 -34 21 -72 21 -84 0 -42 -42 -109 -98 -154 -64 -53 -64
-53 -191 6 -102 47 -116 44 -106 -19 14 -95 13 -96 -25 -101 -19 -3 -35 -10
-35 -17 0 -7 21 -26 48 -42 52 -34 57 -50 28 -97 -33 -54 -86 -86 -199 -119
l-107 -32 -27 -54 c-45 -89 -50 -85 129 -92 90 -4 159 -11 161 -17 13 -37 40
-52 105 -57 41 -4 67 -10 67 -17 0 -14 -56 -69 -87 -85 -31 -16 -63 -14 -145
9 -40 11 -76 20 -80 20 -14 0 -79 -64 -108 -105 -29 -42 -32 -43 -235 -111
-113 -38 -204 -73 -202 -79 2 -5 19 -18 38 -27 49 -25 153 -23 279 7 134 32
155 31 185 -1 l24 -26 38 30 c92 72 155 83 221 39 53 -34 72 -34 196 4 l101
31 30 -38 c47 -61 95 -104 115 -104 27 0 50 38 50 81 0 21 5 39 12 41 7 3 37
-1 68 -9 128 -30 286 -7 391 56 104 63 103 85 -6 121 -97 32 -98 38 -8 109 42
33 84 61 93 61 36 0 157 71 204 119 47 48 49 51 36 80 -17 41 -71 88 -117 100
-21 6 -87 11 -146 11 -81 0 -109 3 -113 13 -3 8 19 72 47 143 89 220 80 309
-42 417 l-59 52 6 47 6 47 -54 -6 c-86 -9 -90 5 -39 127 23 55 44 120 47 144
6 41 4 48 -24 75 -17 17 -40 31 -52 31 -12 0 -34 9 -50 20 -15 11 -39 24 -54
30 -65 24 -2 125 204 328 161 159 178 186 125 210 -34 16 -175 14 -300 -3 -60
-8 -104 -9 -110 -4 -14 14 83 106 222 211 68 51 123 98 123 104 0 7 -7 15 -16
18 -16 6 -283 5 -346 -1z"/>
<path d="M3395 7326 c-62 -15 -91 -30 -130 -67 -18 -17 -44 -29 -65 -31 -48
-4 -49 -37 -1 -53 38 -13 46 -24 37 -59 -4 -16 -19 -29 -45 -40 -39 -15 -41
-15 -102 17 -56 29 -71 32 -149 32 -78 0 -91 -3 -129 -28 -52 -35 -59 -52 -33
-80 11 -12 26 -35 32 -51 15 -41 -8 -63 -82 -77 -32 -6 -61 -16 -64 -21 -11
-17 27 -60 69 -78 23 -10 66 -22 95 -26 29 -3 55 -11 58 -15 7 -12 -74 -49
-109 -49 -18 0 -37 10 -53 27 -28 30 -36 25 -53 -29 -15 -45 -30 -51 -82 -33
-53 19 -74 19 -93 -1 -24 -23 -19 -56 12 -80 l27 -22 -28 -11 c-16 -6 -36 -11
-46 -11 -9 0 -26 -6 -36 -14 -20 -14 -16 -32 17 -78 10 -14 6 -24 -25 -64 -20
-26 -37 -50 -37 -54 0 -12 21 -25 112 -64 84 -37 91 -38 160 -32 447 42 614
82 751 179 107 76 165 183 175 325 l7 87 91 62 91 62 -2 123 c-1 91 -5 133
-18 162 -17 40 -26 42 -92 25 -5 -1 -38 6 -73 16 -49 15 -64 23 -68 42 -7 27
-37 29 -119 9z"/>
<path d="M6303 2521 c-143 -115 -149 -123 -173 -221 -33 -138 -25 -218 27
-273 30 -31 93 -67 117 -67 8 0 35 23 60 50 101 113 155 367 111 517 -25 85
-30 84 -142 -6z"/>
<path d="M6227 1836 c-32 -24 -88 -60 -125 -79 -117 -62 -125 -79 -126 -287
-1 -130 -6 -176 -30 -288 -36 -167 -31 -199 29 -194 52 4 83 22 132 76 47 52
59 55 97 25 15 -12 29 -20 30 -18 9 10 46 92 76 167 l33 83 -28 69 c-33 82
-29 111 19 142 42 28 51 71 36 177 -10 74 -53 171 -74 171 -6 0 -37 -20 -69
-44z"/>
<path d="M8045 685 c-38 -7 -126 -30 -195 -50 -158 -46 -241 -46 -334 -1 -58
28 -60 29 -105 13 -25 -8 -82 -23 -126 -32 -67 -15 -86 -23 -116 -54 -46 -46
-61 -111 -32 -143 69 -78 191 -141 513 -265 135 -52 270 -106 301 -121 l55
-27 32 38 c48 58 56 101 41 228 -15 136 -10 179 29 260 36 73 47 162 22 165
-8 1 -46 -4 -85 -11z"/>
</g>
</svg>
