<svg xmlns="http://www.w3.org/2000/svg" viewBox="0 0 643.79 310.84"><defs><style>.cls-1{fill:#d34a46;}</style></defs><g id="Layer_2" data-name="Layer 2"><g id="OBJECTS"><path class="cls-1" d="M574.09,174.54h-1.71l-5.35-.07-14.7-17.81-4.56.37-13.83-8.71-7.39.33-18.93-17.7,3.16-7.59-9.64-11.2-9.29-1.4-.67-3.24-4.64-1.45-7.87-15.92-5.54-14.87-1.7-9.13-10-4.94-1.9-2.11-5.4-6L435.92,73.16l-12.56,6.4-13.06,18,7.62,14.13,24.68,19,2.08,4.69,6.54,3.65L457,150.88l10.27,5.48,13.1,14.28-19.81-10.32,1,3.16,2.88,6.84-6.62-5.23-6.61-1.61,10,18.85-16.38-15.65L437,154.42l-5.13-4-.24,4.15-23.82-26.09-7.71-1.9L391.5,120l-8.23-14.09-8.95-9.54-5.09.44-11.55-8.53,5.78,11.12L352.71,92l1.92,6.36L339,90l.9-6.59-2.5-5.86-1.75.67,2.46-8.12-2.8,2.77L334.76,67l-3.91-1.35,3.13-1-.34-11.36L320.56,44.3l-1.05,7.39-4,5.11,1.37-11.6,2.77-4.72-2.92-2.21-3,3.46-7.71-11.09L312,13.72,309.61,15l.32-8.88L306.73,9l-5,9.78-15.07,20-12,8.42L266.9,64h0l-1.14,2.45L253.42,86.67l-18,14.47-8.15,11,12.86,11.2,20.6-9.42q7.48,5.67,14.95,11.36L327.24,163l25.59,13.65,14.57-.33,50.35,38.92,16.8,13,4.72-1.9,3.66,3.35,10.59,3.82,9.81,5.63,17.72-15.08,6.23-13.52,15.36,22.65,4.55-2.12,4.56,6,10.52-8.41,5.34-9.33,3.69.38,3.45-4,4.8,1.65,9.65,14.45,10.32,6.44,5,7,3.73-7.54,3.13,2.85,5.72.4,3.25,4.33,1.95.34.35-2.55,2.93,4.44,2.07-.77,56.13-21Zm-111-58.79,2.76-7.68,2.9-4,3.84.79ZM314.37,82.09l-3.92-7.19-4.05-4.22-1.83,3,.85,7.8-7.17-6.24L293.5,85.71l-.44-4.06,3.88-8.59L297,68l-6.13-8.81,1-7.76L297.84,40l8.27,8.28.33,5,4.21,5.08,1,8.79L316,74.38Zm38,42.14-10.49-5.52-5.08-3.5-4,.82-6.57-5.78-4.44-1.66-.41-2.7-2-2.75,5.75-11.21-.05-9.4,5.48-5.73-2.87,7.41,2.09,3.47,4.26,10.63L337,99.45l9.31,10.3.64,3.75,7.68,8,10.26,10.42Zm149,2.21,4.13-4.28-4.13,8.9ZM503.76,183l-3-1.75-3.46-6.15-5.52-1,1.86,5.63L490,178.2l-5,2.59,3.86-4.76-.76-4.24,10.37-4,15.6,24.33Zm34.08,24.4-7.05-4.54,6.79,2.47L528,195.52l13.22,7.67,8.87,10.86Z"/><path class="cls-1" d="M585.59,247.54,539,265l-29.29,4.84L466.15,280l-54,16.37-52.63-11.52-18.16,8.64-11.6-11.36-71.87,28.75-92.49-45L120,277.75l-17.68-8.16-15.28,4.67-13.72-7.93-20.51,5.92-13.64-7.17L24,268.33s-24.4-2.43-24-2.78c5.29-2.29,10.63-4.52,16-6.64L20.62,249l28.84-19L66,203.94l26.59-31.36,13.17.2,8.23-5.09,32.21-35.92,7.62,0,33.5-33.18,2.2,54.83,11.18,42.16,23,18.81-4.88-35.66-11.19-10.06L193,144l22,18.82-15.18-32.42,12.48,11.69-5.83-14.34-8.47-12.93,5.88,3.93,3.7-2.15,2.56,1.07,4.1-2.4,8.94-5.2,3.69,17.85,5.12,4.79,8.2-9.34,20.6-9.42c-.22.49-.29,20.76-.29,20.76l25.74,31.45,3.27,18.74,0,.24-4.91,17L307,217.84l-.81-17.63L300.51,195,291,177.23l13.79,12.25-13.41-35.1L290,144.31,316.47,171l12.71,13.17,24.48,17.74L346.46,183l12.7-.93L366,183.9l30.81,26.89-8.07-14.11,29,18.6,16.8,13,4.72-1.9,3.66,3.35,10.59,3.82,9.81,5.63,17.72-15.08,6.23-13.52,15.36,22.65,4.55-2.12,4.56,6,10.52-8.41,5.34-9.33,3.69.38,3.45-4,4.8,1.65,9.65,14.45,10.32,6.44,5,7,3.73-7.54,3.13,2.85,5.72.4,3.25,4.33,1.95.34.35-2.55Z"/><path class="cls-1" d="M464.36,170.32l-2.88-6.84-1-3.16,19.81,10.32-13.1-14.28L457,150.88,451.22,139l-6.54-3.65-2.08-4.69-24.68-19L410.3,97.55,400.35,79l-7.2-8.28-7.56-15.92-18-13.06-10-13.42L348.88,14.6,327.53,0l-.38,6,7.51,4.51.66,9,.88,3.72,2.56,4-4-.31-1-3.64L321.87,10.41,317,9.06h0l-2.1-.59-4.88-2.39L309.61,15,312,13.72l-5.89,16.92,7.71,11.09,3-3.46,2.92,2.21-2.77,4.72-1.37,11.6,4-5.11,1.05-7.39,13.08,9.07L334,64.73l-3.13,1L334.76,67l.56,5.82,2.8-2.77-2.46,8.12,1.75-.67,2.5,5.86L339,90l15.62,8.35L352.71,92l10.75,7.45-5.78-11.12,11.55,8.53,5.09-.44,8.95,9.54L391.5,120l8.61,6.59,7.71,1.9,23.82,26.09.24-4.15,5.13,4,7.74,12.26,16.38,15.65-10-18.85,6.61,1.61ZM371.92,89l-21-20.07-4.52-10.55-8.78-8.14-5.25-10.3,8.82,6.26-3-7.75,10.9,8.16,8.55,11.32L372,70.25Z"/><polygon class="cls-1" points="572.38 174.53 567.03 174.46 552.33 156.65 547.77 157.02 533.94 148.31 526.55 148.64 507.62 130.94 510.78 123.35 501.14 112.14 491.85 110.75 491.18 107.51 486.54 106.06 478.67 90.14 473.13 75.27 471.43 66.14 461.45 61.2 459.55 59.09 466.53 54.4 490.49 73.59 511.84 109.66 519.28 110.27 534.78 134.3 546.22 143.64 553.47 150.26 572.38 174.53"/><polygon class="cls-1" points="338.76 27.28 334.77 26.97 333.8 23.33 321.87 10.41 316.95 9.06 327.53 0 327.15 6.03 334.67 10.54 335.32 19.56 336.19 23.28 338.76 27.28"/><polygon class="cls-1" points="315.98 74.38 314.37 82.09 310.44 74.9 306.4 70.68 304.57 73.7 305.42 81.5 298.25 75.26 293.5 85.71 293.06 81.65 296.94 73.06 297 67.96 290.87 59.16 291.91 51.39 297.84 40.02 306.11 48.3 306.44 53.25 310.65 58.34 311.63 67.12 315.98 74.38"/><polygon class="cls-1" points="364.84 131.91 352.41 124.23 341.92 118.71 336.84 115.21 332.87 116.03 326.3 110.25 321.86 108.59 321.45 105.89 319.44 103.14 325.19 91.93 325.14 82.53 330.62 76.8 327.75 84.21 329.84 87.68 334.1 98.31 336.95 99.45 346.25 109.75 346.9 113.5 354.58 121.49 364.84 131.91"/><polygon class="cls-1" points="371.95 70.25 371.92 88.98 350.93 68.91 346.4 58.36 337.63 50.22 332.38 39.92 341.2 46.18 338.16 38.43 349.06 46.59 357.61 57.91 371.95 70.25"/><path class="cls-1" d="M417.75,215.28,367.4,176.36l-14.57.33L327.24,163l-51.57-37.77q-7.47-5.68-14.95-11.36c-.22.49-.29,20.76-.29,20.76l25.74,31.45,3.27,18.74,0,.24-4.91,17L307,217.84l-.81-17.63L300.51,195,291,177.23l13.79,12.25-13.41-35.1L290,144.31,316.47,171l12.71,13.17,24.48,17.74L346.46,183l12.7-.93L366,183.9l30.81,26.89-8.07-14.11Z"/><polygon class="cls-1" points="514.1 192.14 503.76 183 500.77 181.25 497.31 175.1 491.79 174.06 493.65 179.69 489.99 178.2 485.02 180.78 488.89 176.03 488.13 171.79 498.5 167.81 514.1 192.14"/><polygon class="cls-1" points="550.11 214.05 537.84 207.4 530.78 202.86 537.58 205.33 528.02 195.52 541.24 203.19 550.11 214.05"/><polygon class="cls-1" points="505.53 122.16 501.4 131.06 501.4 126.44 505.53 122.16"/><polygon class="cls-1" points="472.55 104.83 463.05 115.75 465.81 108.07 468.71 104.04 472.55 104.83"/><polygon class="cls-1" points="218.76 178.75 207.57 168.69 192.98 143.96 214.93 162.78 199.75 130.36 212.23 142.05 206.41 127.71 197.93 114.78 203.81 118.71 207.51 116.56 210.07 117.63 214.17 115.23 187.3 98.61 189.5 153.44 200.68 195.6 223.64 214.41 218.76 178.75"/><polygon class="cls-1" points="266.9 63.99 265.76 66.44 253.42 86.67 235.41 101.14 227.26 112.13 240.12 123.33 231.92 132.67 226.8 127.88 223.11 110.03 236.1 91.07 266.9 63.99"/></g></g></svg>