<svg xmlns="http://www.w3.org/2000/svg" viewBox="0 0 740 167.38"><defs><style>.cls-1{fill:#3f4f51;}</style></defs><g id="Layer_2" data-name="Layer 2"><g id="objects"><path class="cls-1" d="M740,167.38V120h-1.88V89.62h-3.37V81.88h-8.5V62.38h-5.63V49.62h3V46.75H703.37V27.62h-6V20h2V7.5l-4.12-3-5.13,3.12v12.5h2.25v7.5h-5.25V14.38h-14.5V27.62H669v74.13H648.5v26.5h-5.38v6.5H632.75v-28h-2.63v-5.87h-8.87v5.74H617.5v-3h-1.75V100l-3.88-2.25-3.5,1.75-3-1.75-3.25,1.37v7.76H600.5v28.24h-2.13V120.5h-2.75v-31h-3.25V82.75h-12v6.87H568.12v48H562.5v-17.5h-2.25V89.5h-4V82.88h-3.63V78.25l-3.12-1.63-3.88,1.76v3.5H541.5V89.5h-7.25v1.75h-3v15.5h-2.63V26.5h-4.25V23.12h-9.75V14.38h-5.5V9l-4.5-2.38-4.5,2.26v3.24h-4.37V23.88h-4.88v49.5h-9.62v8h-7.63V71.75L455.87,82.38h-4.25v28H442.5v2.87h-5v6.13h-3.38v-5.76h-11v21.13H420.5V107h-1.88V89.62H416.5V77.12L413,72.5V64.12l-3.25-1.62-3.63,2v8l-2.5,4.75V69H391v8.12h-1.75v29.63h-2v13.13h-2.63V106.75h-1.37V89.5h-3.38V83.12H367.5V89.5l-12.25-.12V98l-2.13,1.38v7.37h-6.24V45.5h-3V34.88H332v10.5H319.62v62.5H315.5V64.25h1.12V61.38h-4.5V52h-4.87V46.25l-5-2.25-4.5,2.12V52H291.5v9.75h-9.62v2.63h-4.5V113h-2.76V89.38h-4.87V85.12h1.87V78.25l-3.37-1.87-3.75,1.87v6.87h1.88V89.5h-4.5V81.38H257V47H244V36H231.62V47H229.5v9.12h-8.38V66H219V17.25h-8.12V4.88l-5-4.88-4.76,4.88v12.5H193.5v3.24h-3.62V134.75h-18V107h-2.63V57.88h-3.5v-2.5H158.5V45h-4.25V39.31L151,36.94l-3.38,2.37v7.07h-3.74v9.24h-5.13v83.76h-3.13v-30.5h.76v-2.13h-3V101H124v5.75h-5.25v-6.06a3.57,3.57,0,0,0-3.69-2.94c-3.25,0-3.62,1.94-3.62,1.94s-.63-1.81-3.94-1.81a3.07,3.07,0,0,0-3.12,2.81v6.19h-2.13v1.74h1.13v44.13H99.62V108.62h1.13v-1.74H97.88v-6.13H88.75v5.37H83.12V99.88s-.62-2-3.5-2a3.86,3.86,0,0,0-3.5,2s-.5-2.07-3.43-2.07a4,4,0,0,0-3.31,1.94v7h-1.5v28.13H65.25V50.75h1V48.12H62.12V38.38H47.75V48H33.25v86.88H27V91.38h1v-2H24.5V82.12H13.62v7.26H8.88V85.25h1.24v-7l-3.24-2-4,2.25v6.88H4.12V89.5H0v77.75H739.87"/></g></g></svg>